<?xml version="1.0" standalone="no"?>
<!DOCTYPE svg PUBLIC "-//W3C//DTD SVG 20010904//EN"
 "http://www.w3.org/TR/2001/REC-SVG-20010904/DTD/svg10.dtd">
<svg version="1.0" xmlns="http://www.w3.org/2000/svg"
 width="500.000000pt" height="500.000000pt" viewBox="0 0 500.000000 500.000000"
 preserveAspectRatio="xMidYMid meet">
<metadata>
Created by potrace 1.14, written by Peter Selinger 2001-2017
</metadata>
<g transform="translate(0.000000,500.000000) scale(0.100000,-0.100000)"
fill="#000000" stroke="none">
<path d="M0 2500 l0 -2500 2500 0 2500 0 0 2500 0 2500 -2500 0 -2500 0 0
-2500z m3519 1485 c114 -27 187 -71 287 -170 152 -152 184 -243 184 -532 l0
-183 -325 0 -325 0 0 125 0 125 -845 0 -845 0 0 -260 0 -260 893 0 c991 0 967
1 1106 -67 150 -74 288 -245 326 -404 22 -93 22 -795 0 -888 -51 -215 -252
-410 -470 -456 -104 -22 -1916 -22 -2020 0 -223 47 -422 246 -470 471 -10 45
-15 129 -15 242 l0 172 325 0 325 0 0 -120 0 -120 845 0 845 0 0 255 0 254
-912 4 c-840 3 -918 4 -972 21 -224 67 -394 249 -441 471 -21 100 -21 749 0
850 46 218 238 417 453 469 89 22 1960 22 2051 1z"/>
</g>
</svg>
